<svg width="171" height="24" viewBox="0 0 171 24" fill="none" xmlns="http://www.w3.org/2000/svg">
<g clip-path="url(#clip0_0_351)">
<path d="M50.7158 16.1367C49.6084 16.1367 48.7334 15.7995 48.0908 15.125C47.4528 14.4505 47.1338 13.514 47.1338 12.3154C47.1338 11.1077 47.43 10.1484 48.0225 9.4375C48.6195 8.72656 49.4193 8.37109 50.4219 8.37109C51.3607 8.37109 52.1035 8.68099 52.6504 9.30078C53.1973 9.91602 53.4707 10.7295 53.4707 11.7412V12.459H48.3096C48.3324 13.3385 48.5534 14.0062 48.9727 14.4619C49.3965 14.9176 49.9912 15.1455 50.7568 15.1455C51.5635 15.1455 52.361 14.9769 53.1494 14.6396V15.6514C52.7484 15.8245 52.3678 15.9476 52.0078 16.0205C51.6523 16.098 51.2217 16.1367 50.7158 16.1367ZM50.4082 9.32129C49.8066 9.32129 49.3258 9.51725 48.9658 9.90918C48.6104 10.3011 48.4007 10.8434 48.3369 11.5361H52.2539C52.2539 10.8206 52.0944 10.2738 51.7754 9.89551C51.4564 9.5127 51.0007 9.32129 50.4082 9.32129ZM57.2168 12.165L54.6123 8.50781H55.9043L57.8799 11.3789L59.8486 8.50781H61.127L58.5225 12.165L61.2637 16H59.9785L57.8799 12.9648L55.7607 16H54.4756L57.2168 12.165ZM67.3613 16L67.1357 14.9336H67.0811C66.7074 15.403 66.3337 15.722 65.96 15.8906C65.5908 16.0547 65.1283 16.1367 64.5723 16.1367C63.8294 16.1367 63.2461 15.9453 62.8223 15.5625C62.403 15.1797 62.1934 14.6351 62.1934 13.9287C62.1934 12.4157 63.4033 11.6227 65.8232 11.5498L67.0947 11.5088V11.0439C67.0947 10.4561 66.9671 10.0231 66.7119 9.74512C66.4613 9.46257 66.0579 9.32129 65.502 9.32129C64.8776 9.32129 64.1712 9.5127 63.3828 9.89551L63.0342 9.02734C63.4033 8.82682 63.8066 8.6696 64.2441 8.55566C64.6862 8.44173 65.1283 8.38477 65.5703 8.38477C66.4635 8.38477 67.1243 8.58301 67.5527 8.97949C67.9857 9.37598 68.2021 10.0117 68.2021 10.8867V16H67.3613ZM64.7979 15.2002C65.5042 15.2002 66.0579 15.0065 66.459 14.6191C66.8646 14.2318 67.0674 13.6895 67.0674 12.9922V12.3154L65.9326 12.3633C65.0303 12.3952 64.3786 12.5365 63.9775 12.7871C63.5811 13.0332 63.3828 13.4183 63.3828 13.9424C63.3828 14.3525 63.5059 14.6647 63.752 14.8789C64.0026 15.0931 64.3512 15.2002 64.7979 15.2002ZM80.0967 16V11.126C80.0967 10.529 79.9691 10.0824 79.7139 9.78613C79.4587 9.48535 79.0622 9.33496 78.5244 9.33496C77.818 9.33496 77.2962 9.53776 76.959 9.94336C76.6217 10.349 76.4531 10.9733 76.4531 11.8164V16H75.3184V11.126C75.3184 10.529 75.1908 10.0824 74.9355 9.78613C74.6803 9.48535 74.2816 9.33496 73.7393 9.33496C73.0283 9.33496 72.5065 9.54915 72.1738 9.97754C71.8457 10.4014 71.6816 11.0986 71.6816 12.0693V16H70.5469V8.50781H71.4697L71.6543 9.5332H71.709C71.9232 9.16862 72.224 8.88379 72.6113 8.67871C73.0033 8.47363 73.4408 8.37109 73.9238 8.37109C75.0951 8.37109 75.8607 8.79492 76.2207 9.64258H76.2754C76.4987 9.25065 76.8223 8.94076 77.2461 8.71289C77.6699 8.48503 78.153 8.37109 78.6953 8.37109C79.543 8.37109 80.1764 8.58984 80.5957 9.02734C81.0195 9.46029 81.2314 10.1553 81.2314 11.1123V16H80.0967ZM87.0625 16.1367C86.5749 16.1367 86.1283 16.0479 85.7227 15.8701C85.3216 15.6878 84.9844 15.4098 84.7109 15.0361H84.6289C84.6836 15.4736 84.7109 15.8883 84.7109 16.2803V19.3633H83.5762V8.50781H84.499L84.6562 9.5332H84.7109C85.0026 9.12305 85.3421 8.82682 85.7295 8.64453C86.1169 8.46224 86.5612 8.37109 87.0625 8.37109C88.056 8.37109 88.8216 8.71061 89.3594 9.38965C89.9017 10.0687 90.1729 11.0212 90.1729 12.2471C90.1729 13.4775 89.8971 14.4346 89.3457 15.1182C88.7988 15.7972 88.0378 16.1367 87.0625 16.1367ZM86.8984 9.33496C86.1328 9.33496 85.5791 9.54688 85.2373 9.9707C84.8955 10.3945 84.7201 11.069 84.7109 11.9941V12.2471C84.7109 13.2998 84.8864 14.054 85.2373 14.5098C85.5882 14.9609 86.151 15.1865 86.9258 15.1865C87.5729 15.1865 88.0788 14.9245 88.4434 14.4004C88.8125 13.8763 88.9971 13.154 88.9971 12.2334C88.9971 11.2992 88.8125 10.5837 88.4434 10.0869C88.0788 9.58561 87.5638 9.33496 86.8984 9.33496ZM93.2969 16H92.1621V5.36328H93.2969V16ZM98.8682 16.1367C97.7607 16.1367 96.8857 15.7995 96.2432 15.125C95.6051 14.4505 95.2861 13.514 95.2861 12.3154C95.2861 11.1077 95.5824 10.1484 96.1748 9.4375C96.7718 8.72656 97.5716 8.37109 98.5742 8.37109C99.513 8.37109 100.256 8.68099 100.803 9.30078C101.35 9.91602 101.623 10.7295 101.623 11.7412V12.459H96.4619C96.4847 13.3385 96.7057 14.0062 97.125 14.4619C97.5488 14.9176 98.1436 15.1455 98.9092 15.1455C99.7158 15.1455 100.513 14.9769 101.302 14.6396V15.6514C100.901 15.8245 100.52 15.9476 100.16 16.0205C99.8047 16.098 99.374 16.1367 98.8682 16.1367ZM98.5605 9.32129C97.959 9.32129 97.4782 9.51725 97.1182 9.90918C96.7627 10.3011 96.5531 10.8434 96.4893 11.5361H100.406C100.406 10.8206 100.247 10.2738 99.9277 9.89551C99.6087 9.5127 99.153 9.32129 98.5605 9.32129ZM114.119 11.0166C114.119 11.6637 114.019 12.2562 113.818 12.7939C113.618 13.3317 113.335 13.7487 112.971 14.0449C112.606 14.3411 112.187 14.4893 111.713 14.4893C111.321 14.4893 110.991 14.3708 110.722 14.1338C110.453 13.8968 110.293 13.5938 110.243 13.2246H110.188C110.006 13.6211 109.744 13.931 109.402 14.1543C109.065 14.3776 108.664 14.4893 108.199 14.4893C107.516 14.4893 106.98 14.2568 106.593 13.792C106.21 13.3226 106.019 12.6868 106.019 11.8848C106.019 10.9551 106.287 10.2008 106.825 9.62207C107.363 9.03874 108.069 8.74707 108.944 8.74707C109.254 8.74707 109.605 8.77669 109.997 8.83594C110.389 8.89062 110.742 8.9681 111.057 9.06836L110.886 12.2812V12.4316C110.886 13.2428 111.189 13.6484 111.795 13.6484C112.21 13.6484 112.547 13.4046 112.807 12.917C113.066 12.4248 113.196 11.7868 113.196 11.0029C113.196 10.1781 113.028 9.45573 112.69 8.83594C112.353 8.21615 111.872 7.73991 111.248 7.40723C110.628 7.06999 109.915 6.90137 109.108 6.90137C108.092 6.90137 107.208 7.11328 106.456 7.53711C105.704 7.95638 105.13 8.55794 104.733 9.3418C104.337 10.1211 104.139 11.0234 104.139 12.0488C104.139 13.4388 104.506 14.5075 105.239 15.2549C105.973 16.0023 107.03 16.376 108.411 16.376C109.368 16.376 110.362 16.18 111.392 15.7881V16.6973C110.517 17.0801 109.523 17.2715 108.411 17.2715C106.757 17.2715 105.472 16.818 104.556 15.9111C103.644 14.9997 103.188 13.7282 103.188 12.0967C103.188 10.9118 103.432 9.85677 103.92 8.93164C104.408 8.00651 105.103 7.29102 106.005 6.78516C106.907 6.27474 107.942 6.01953 109.108 6.01953C110.088 6.01953 110.959 6.22689 111.72 6.6416C112.485 7.05176 113.076 7.63737 113.49 8.39844C113.91 9.15495 114.119 10.0277 114.119 11.0166ZM107.051 11.9121C107.051 13.0697 107.495 13.6484 108.384 13.6484C109.327 13.6484 109.84 12.9352 109.922 11.5088L110.018 9.72461C109.689 9.63346 109.332 9.58789 108.944 9.58789C108.352 9.58789 107.887 9.79297 107.55 10.2031C107.217 10.6133 107.051 11.1829 107.051 11.9121ZM119.533 9.38965H117.626V16H116.491V9.38965H115.151V8.87695L116.491 8.4668V8.0498C116.491 6.20866 117.296 5.28809 118.904 5.28809C119.301 5.28809 119.766 5.36784 120.299 5.52734L120.005 6.43652C119.567 6.29525 119.194 6.22461 118.884 6.22461C118.455 6.22461 118.139 6.36816 117.934 6.65527C117.729 6.93783 117.626 7.39355 117.626 8.02246V8.50781H119.533V9.38965ZM119.711 8.50781H120.928L122.568 12.7803C122.928 13.7555 123.152 14.4596 123.238 14.8926H123.293C123.352 14.6602 123.475 14.2637 123.662 13.7031C123.854 13.138 124.473 11.4062 125.521 8.50781H126.738L123.519 17.0391C123.2 17.8822 122.826 18.4792 122.397 18.8301C121.974 19.1855 121.452 19.3633 120.832 19.3633C120.486 19.3633 120.144 19.3245 119.807 19.2471V18.3379C120.057 18.3926 120.338 18.4199 120.647 18.4199C121.427 18.4199 121.983 17.9824 122.315 17.1074L122.732 16.041L119.711 8.50781ZM129.09 16H127.955V5.36328H129.09V16ZM137.963 12.2471C137.963 13.4684 137.655 14.4232 137.04 15.1113C136.425 15.7949 135.575 16.1367 134.49 16.1367C133.82 16.1367 133.226 15.9795 132.706 15.665C132.187 15.3506 131.785 14.8994 131.503 14.3115C131.22 13.7236 131.079 13.0355 131.079 12.2471C131.079 11.0257 131.384 10.0755 131.995 9.39648C132.606 8.71289 133.453 8.37109 134.538 8.37109C135.586 8.37109 136.418 8.71973 137.033 9.41699C137.653 10.1143 137.963 11.0576 137.963 12.2471ZM132.255 12.2471C132.255 13.2041 132.446 13.9333 132.829 14.4346C133.212 14.9359 133.775 15.1865 134.518 15.1865C135.26 15.1865 135.823 14.9382 136.206 14.4414C136.593 13.9401 136.787 13.2087 136.787 12.2471C136.787 11.2946 136.593 10.5723 136.206 10.0801C135.823 9.58333 135.256 9.33496 134.504 9.33496C133.761 9.33496 133.201 9.57878 132.822 10.0664C132.444 10.554 132.255 11.2809 132.255 12.2471ZM139.795 15.2754C139.795 14.9701 139.863 14.7399 140 14.585C140.141 14.4255 140.342 14.3457 140.602 14.3457C140.866 14.3457 141.071 14.4255 141.217 14.585C141.367 14.7399 141.442 14.9701 141.442 15.2754C141.442 15.5716 141.367 15.7995 141.217 15.959C141.066 16.1185 140.861 16.1982 140.602 16.1982C140.369 16.1982 140.175 16.1276 140.021 15.9863C139.87 15.8405 139.795 15.6035 139.795 15.2754ZM146.686 16.1367C145.601 16.1367 144.76 15.804 144.163 15.1387C143.571 14.4688 143.274 13.5231 143.274 12.3018C143.274 11.0485 143.575 10.0801 144.177 9.39648C144.783 8.71289 145.644 8.37109 146.761 8.37109C147.121 8.37109 147.481 8.40983 147.841 8.4873C148.201 8.56478 148.483 8.65592 148.688 8.76074L148.34 9.72461C148.089 9.62435 147.816 9.54232 147.52 9.47852C147.223 9.41016 146.961 9.37598 146.733 9.37598C145.211 9.37598 144.45 10.3467 144.45 12.2881C144.45 13.2087 144.635 13.915 145.004 14.4072C145.378 14.8994 145.929 15.1455 146.658 15.1455C147.283 15.1455 147.923 15.0111 148.579 14.7422V15.7471C148.078 16.0068 147.447 16.1367 146.686 16.1367ZM156.83 12.2471C156.83 13.4684 156.522 14.4232 155.907 15.1113C155.292 15.7949 154.442 16.1367 153.357 16.1367C152.688 16.1367 152.093 15.9795 151.573 15.665C151.054 15.3506 150.653 14.8994 150.37 14.3115C150.088 13.7236 149.946 13.0355 149.946 12.2471C149.946 11.0257 150.252 10.0755 150.862 9.39648C151.473 8.71289 152.321 8.37109 153.405 8.37109C154.453 8.37109 155.285 8.71973 155.9 9.41699C156.52 10.1143 156.83 11.0576 156.83 12.2471ZM151.122 12.2471C151.122 13.2041 151.313 13.9333 151.696 14.4346C152.079 14.9359 152.642 15.1865 153.385 15.1865C154.128 15.1865 154.69 14.9382 155.073 14.4414C155.461 13.9401 155.654 13.2087 155.654 12.2471C155.654 11.2946 155.461 10.5723 155.073 10.0801C154.69 9.58333 154.123 9.33496 153.371 9.33496C152.628 9.33496 152.068 9.57878 151.689 10.0664C151.311 10.554 151.122 11.2809 151.122 12.2471ZM168.376 16V11.126C168.376 10.529 168.248 10.0824 167.993 9.78613C167.738 9.48535 167.341 9.33496 166.804 9.33496C166.097 9.33496 165.576 9.53776 165.238 9.94336C164.901 10.349 164.732 10.9733 164.732 11.8164V16H163.598V11.126C163.598 10.529 163.47 10.0824 163.215 9.78613C162.96 9.48535 162.561 9.33496 162.019 9.33496C161.308 9.33496 160.786 9.54915 160.453 9.97754C160.125 10.4014 159.961 11.0986 159.961 12.0693V16H158.826V8.50781H159.749L159.934 9.5332H159.988C160.202 9.16862 160.503 8.88379 160.891 8.67871C161.283 8.47363 161.72 8.37109 162.203 8.37109C163.374 8.37109 164.14 8.79492 164.5 9.64258H164.555C164.778 9.25065 165.102 8.94076 165.525 8.71289C165.949 8.48503 166.432 8.37109 166.975 8.37109C167.822 8.37109 168.456 8.58984 168.875 9.02734C169.299 9.46029 169.511 10.1553 169.511 11.1123V16H168.376Z" fill="white"/>
</g>
<path fill-rule="evenodd" clip-rule="evenodd" d="M20 4H4C2.9 4 2 4.9 2 6V18C2 19.1 2.9 20 4 20H20C21.1 20 22 19.1 22 18V6C22 4.9 21.1 4 20 4ZM20 18H18V9.2L12 13L6 9.2V18H4V6H5.2L12 10.2L18.8 6H20V18Z" fill="white"/>
<defs>
<clipPath id="clip0_0_351">
<rect width="125" height="21" fill="white" transform="translate(46)"/>
</clipPath>
</defs>
</svg>
