<svg width="158" height="24" viewBox="0 0 158 24" fill="none" xmlns="http://www.w3.org/2000/svg">
<path d="M52.126 10.5928H54.9424V11.5361H52.126V14.4482H51.1758V11.5361H48.373V10.5928H51.1758V7.66699H52.126V10.5928ZM60.5615 16H59.4541V8.87695C59.4541 8.28451 59.4723 7.72396 59.5088 7.19531C59.4131 7.29102 59.306 7.39128 59.1875 7.49609C59.069 7.60091 58.5267 8.04525 57.5605 8.8291L56.959 8.0498L59.6045 6.00586H60.5615V16ZM64.2598 12.7666V11.7275H67.6162V12.7666H64.2598ZM72.0049 9.89551C73.0576 9.89551 73.8848 10.1576 74.4863 10.6816C75.0924 11.2012 75.3955 11.9144 75.3955 12.8213C75.3955 13.8558 75.0651 14.667 74.4043 15.2549C73.748 15.8428 72.8411 16.1367 71.6836 16.1367C70.5579 16.1367 69.6989 15.9567 69.1064 15.5967V14.5029C69.4255 14.708 69.8219 14.8698 70.2959 14.9883C70.7699 15.1022 71.237 15.1592 71.6973 15.1592C72.4993 15.1592 73.1214 14.9701 73.5635 14.5918C74.0101 14.2135 74.2334 13.6667 74.2334 12.9512C74.2334 11.5566 73.3789 10.8594 71.6699 10.8594C71.237 10.8594 70.6582 10.9255 69.9336 11.0576L69.3457 10.6816L69.7217 6.00586H74.6914V7.05176H70.6924L70.4395 10.0527C70.9635 9.94792 71.4854 9.89551 72.0049 9.89551ZM83.9336 13.7031H82.4502V16H81.3633V13.7031H76.5029V12.7119L81.2471 5.95117H82.4502V12.6709H83.9336V13.7031ZM81.3633 12.6709V9.34863C81.3633 8.69694 81.3861 7.96094 81.4316 7.14062H81.377C81.1582 7.57812 80.9531 7.94043 80.7617 8.22754L77.6377 12.6709H81.3633ZM91.0977 8.35742C91.0977 8.99544 90.9176 9.51725 90.5576 9.92285C90.2021 10.3285 89.6963 10.5996 89.04 10.7363V10.791C89.8421 10.8913 90.4368 11.1465 90.8242 11.5566C91.2116 11.9668 91.4053 12.5046 91.4053 13.1699C91.4053 14.1224 91.0749 14.8561 90.4141 15.3711C89.7533 15.8815 88.8145 16.1367 87.5977 16.1367C87.069 16.1367 86.5837 16.0957 86.1416 16.0137C85.7041 15.9362 85.278 15.7972 84.8633 15.5967V14.5166C85.2962 14.7308 85.7565 14.8949 86.2441 15.0088C86.7363 15.1182 87.2012 15.1729 87.6387 15.1729C89.3659 15.1729 90.2295 14.4961 90.2295 13.1426C90.2295 11.9303 89.277 11.3242 87.3721 11.3242H86.3877V10.3467H87.3857C88.165 10.3467 88.7826 10.1758 89.2383 9.83398C89.694 9.48763 89.9219 9.00911 89.9219 8.39844C89.9219 7.91081 89.7533 7.52799 89.416 7.25C89.0833 6.97201 88.6299 6.83301 88.0557 6.83301C87.6182 6.83301 87.2057 6.89225 86.8184 7.01074C86.431 7.12923 85.9889 7.34798 85.4922 7.66699L84.918 6.90137C85.3281 6.5778 85.7998 6.32487 86.333 6.14258C86.8708 5.95573 87.4359 5.8623 88.0283 5.8623C88.999 5.8623 89.7533 6.08561 90.291 6.53223C90.8288 6.97428 91.0977 7.58268 91.0977 8.35742ZM92.8066 12.7666V11.7275H96.1631V12.7666H92.8066ZM101.632 16H100.524V8.87695C100.524 8.28451 100.543 7.72396 100.579 7.19531C100.483 7.29102 100.376 7.39128 100.258 7.49609C100.139 7.60091 99.597 8.04525 98.6309 8.8291L98.0293 8.0498L100.675 6.00586H101.632V16ZM112.009 16H105.439V15.0225L108.071 12.377C108.873 11.5658 109.402 10.987 109.657 10.6406C109.912 10.2943 110.104 9.95703 110.231 9.62891C110.359 9.30078 110.423 8.94759 110.423 8.56934C110.423 8.03613 110.261 7.61458 109.938 7.30469C109.614 6.99023 109.165 6.83301 108.591 6.83301C108.176 6.83301 107.782 6.90137 107.408 7.03809C107.039 7.1748 106.627 7.42318 106.171 7.7832L105.569 7.01074C106.49 6.24512 107.493 5.8623 108.577 5.8623C109.516 5.8623 110.252 6.10384 110.785 6.58691C111.318 7.06543 111.585 7.71029 111.585 8.52148C111.585 9.15495 111.407 9.78158 111.052 10.4014C110.696 11.0212 110.031 11.805 109.056 12.7529L106.868 14.8926V14.9473H112.009V16ZM119.645 8.35742C119.645 8.99544 119.465 9.51725 119.104 9.92285C118.749 10.3285 118.243 10.5996 117.587 10.7363V10.791C118.389 10.8913 118.984 11.1465 119.371 11.5566C119.758 11.9668 119.952 12.5046 119.952 13.1699C119.952 14.1224 119.622 14.8561 118.961 15.3711C118.3 15.8815 117.361 16.1367 116.145 16.1367C115.616 16.1367 115.131 16.0957 114.688 16.0137C114.251 15.9362 113.825 15.7972 113.41 15.5967V14.5166C113.843 14.7308 114.303 14.8949 114.791 15.0088C115.283 15.1182 115.748 15.1729 116.186 15.1729C117.913 15.1729 118.776 14.4961 118.776 13.1426C118.776 11.9303 117.824 11.3242 115.919 11.3242H114.935V10.3467H115.933C116.712 10.3467 117.329 10.1758 117.785 9.83398C118.241 9.48763 118.469 9.00911 118.469 8.39844C118.469 7.91081 118.3 7.52799 117.963 7.25C117.63 6.97201 117.177 6.83301 116.603 6.83301C116.165 6.83301 115.753 6.89225 115.365 7.01074C114.978 7.12923 114.536 7.34798 114.039 7.66699L113.465 6.90137C113.875 6.5778 114.347 6.32487 114.88 6.14258C115.418 5.95573 115.983 5.8623 116.575 5.8623C117.546 5.8623 118.3 6.08561 118.838 6.53223C119.376 6.97428 119.645 7.58268 119.645 8.35742ZM121.354 12.7666V11.7275H124.71V12.7666H121.354ZM133.016 13.7031H131.532V16H130.445V13.7031H125.585V12.7119L130.329 5.95117H131.532V12.6709H133.016V13.7031ZM130.445 12.6709V9.34863C130.445 8.69694 130.468 7.96094 130.514 7.14062H130.459C130.24 7.57812 130.035 7.94043 129.844 8.22754L126.72 12.6709H130.445ZM137.11 9.89551C138.163 9.89551 138.99 10.1576 139.592 10.6816C140.198 11.2012 140.501 11.9144 140.501 12.8213C140.501 13.8558 140.171 14.667 139.51 15.2549C138.854 15.8428 137.947 16.1367 136.789 16.1367C135.663 16.1367 134.804 15.9567 134.212 15.5967V14.5029C134.531 14.708 134.927 14.8698 135.401 14.9883C135.875 15.1022 136.342 15.1592 136.803 15.1592C137.605 15.1592 138.227 14.9701 138.669 14.5918C139.116 14.2135 139.339 13.6667 139.339 12.9512C139.339 11.5566 138.484 10.8594 136.775 10.8594C136.342 10.8594 135.764 10.9255 135.039 11.0576L134.451 10.6816L134.827 6.00586H139.797V7.05176H135.798L135.545 10.0527C136.069 9.94792 136.591 9.89551 137.11 9.89551ZM142.114 11.7275C142.114 9.76335 142.495 8.2959 143.256 7.3252C144.021 6.34993 145.152 5.8623 146.646 5.8623C147.161 5.8623 147.567 5.9056 147.863 5.99219V6.96973C147.512 6.85579 147.111 6.79883 146.66 6.79883C145.589 6.79883 144.771 7.13379 144.206 7.80371C143.641 8.46908 143.331 9.51725 143.276 10.9482H143.358C143.86 10.1644 144.653 9.77246 145.737 9.77246C146.635 9.77246 147.341 10.0436 147.856 10.5859C148.376 11.1283 148.636 11.8643 148.636 12.7939C148.636 13.833 148.351 14.651 147.781 15.248C147.216 15.8405 146.451 16.1367 145.484 16.1367C144.45 16.1367 143.63 15.7493 143.023 14.9746C142.417 14.1953 142.114 13.113 142.114 11.7275ZM145.471 15.1729C146.118 15.1729 146.619 14.9701 146.975 14.5645C147.335 14.1543 147.515 13.5641 147.515 12.7939C147.515 12.1331 147.348 11.6136 147.016 11.2354C146.683 10.8571 146.186 10.668 145.525 10.668C145.115 10.668 144.739 10.7523 144.397 10.9209C144.056 11.0895 143.782 11.3219 143.577 11.6182C143.377 11.9144 143.276 12.222 143.276 12.541C143.276 13.0104 143.368 13.4479 143.55 13.8535C143.732 14.2591 143.99 14.5804 144.322 14.8174C144.66 15.0544 145.042 15.1729 145.471 15.1729ZM151.274 16L155.417 7.05176H149.969V6.00586H156.62V6.91504L152.532 16H151.274Z" fill="white"/>
<path fill-rule="evenodd" clip-rule="evenodd" d="M20 15.5C18.8 15.5 17.6 15.3 16.4 14.9C16.1 14.8 15.7 14.9 15.4 15.1L13.2 17.3C10.4 15.9 8.1 13.5 6.6 10.7L8.8 8.5C9.1 8.2 9.2 7.8 9 7.5C8.7 6.4 8.5 5.2 8.5 4C8.5 3.4 8.1 3 7.5 3H4C3.4 3 3 3.4 3 4C3 13.4 10.6 21 20 21C20.6 21 21 20.6 21 20V16.5C21 15.9 20.6 15.5 20 15.5ZM19 12H21C21 7 17 3 12 3V5C15.9 5 19 8.1 19 12ZM15 12H17C17 9.2 14.8 7 12 7V9C13.7 9 15 10.3 15 12Z" fill="white"/>
</svg>
